<svg width="220" height="207" viewBox="0 0 220 207" fill="none" xmlns="http://www.w3.org/2000/svg">
<path fill-rule="evenodd" clip-rule="evenodd" d="M79.837 37.6968C90.0757 37.6968 98.3757 29.3967 98.3757 19.1581C98.3757 8.91944 90.0757 0.619385 79.837 0.619385C69.5984 0.619385 61.2983 8.91944 61.2983 19.1581C61.2983 29.3967 69.5984 37.6968 79.837 37.6968ZM19.3688 37.698C29.6074 37.698 37.9075 29.3979 37.9075 19.1593C37.9075 8.92066 29.6074 0.620605 19.3688 0.620605C9.13014 0.620605 0.830078 8.92066 0.830078 19.1593C0.830078 29.3979 9.13014 37.698 19.3688 37.698ZM140.305 28.9324C145.703 28.9324 150.079 24.5563 150.079 19.1581C150.079 13.7599 145.703 9.38374 140.305 9.38374C134.907 9.38374 130.53 13.7599 130.53 19.1581C130.53 24.5563 134.907 28.9324 140.305 28.9324ZM140.305 37.6968C150.543 37.6968 158.844 29.3967 158.844 19.1581C158.844 8.91944 150.543 0.619385 140.305 0.619385C130.066 0.619385 121.766 8.91944 121.766 19.1581C121.766 29.3967 130.066 37.6968 140.305 37.6968ZM210.547 19.1581C210.547 24.5563 206.171 28.9324 200.773 28.9324C195.374 28.9324 190.998 24.5563 190.998 19.1581C190.998 13.7599 195.374 9.38374 200.773 9.38374C206.171 9.38374 210.547 13.7599 210.547 19.1581ZM219.311 19.1581C219.311 29.3967 211.011 37.6968 200.773 37.6968C190.534 37.6968 182.234 29.3967 182.234 19.1581C182.234 8.91944 190.534 0.619385 200.773 0.619385C211.011 0.619385 219.311 8.91944 219.311 19.1581ZM37.907 75.3746C37.907 85.6133 29.6069 93.9133 19.3683 93.9133C9.12965 93.9133 0.82959 85.6133 0.82959 75.3746C0.82959 65.136 9.12965 56.8359 19.3683 56.8359C29.6069 56.8359 37.907 65.136 37.907 75.3746ZM79.837 93.9133C90.0757 93.9133 98.3757 85.6133 98.3757 75.3746C98.3757 65.136 90.0757 56.8359 79.837 56.8359C69.5984 56.8359 61.2983 65.136 61.2983 75.3746C61.2983 85.6133 69.5984 93.9133 79.837 93.9133ZM158.844 75.3746C158.844 85.6133 150.543 93.9133 140.305 93.9133C130.066 93.9133 121.766 85.6133 121.766 75.3746C121.766 65.136 130.066 56.8359 140.305 56.8359C150.543 56.8359 158.844 65.136 158.844 75.3746ZM200.773 93.9133C211.011 93.9133 219.311 85.6133 219.311 75.3746C219.311 65.136 211.011 56.8359 200.773 56.8359C190.534 56.8359 182.234 65.136 182.234 75.3746C182.234 85.6133 190.534 93.9133 200.773 93.9133ZM37.907 131.591C37.907 141.83 29.6069 150.13 19.3683 150.13C9.12965 150.13 0.82959 141.83 0.82959 131.591C0.82959 121.352 9.12965 113.052 19.3683 113.052C29.6069 113.052 37.907 121.352 37.907 131.591ZM79.837 150.13C90.0757 150.13 98.3757 141.83 98.3757 131.591C98.3757 121.352 90.0757 113.052 79.837 113.052C69.5984 113.052 61.2983 121.352 61.2983 131.591C61.2983 141.83 69.5984 150.13 79.837 150.13ZM158.844 131.591C158.844 141.83 150.543 150.13 140.305 150.13C130.066 150.13 121.766 141.83 121.766 131.591C121.766 121.352 130.066 113.052 140.305 113.052C150.543 113.052 158.844 121.352 158.844 131.591ZM200.773 150.13C211.011 150.13 219.311 141.83 219.311 131.591C219.311 121.352 211.011 113.052 200.773 113.052C190.534 113.052 182.234 121.352 182.234 131.591C182.234 141.83 190.534 150.13 200.773 150.13ZM37.907 187.807C37.907 198.046 29.6069 206.346 19.3683 206.346C9.12965 206.346 0.82959 198.046 0.82959 187.807C0.82959 177.568 9.12965 169.268 19.3683 169.268C29.6069 169.268 37.907 177.568 37.907 187.807ZM79.837 206.346C90.0757 206.346 98.3757 198.046 98.3757 187.807C98.3757 177.568 90.0757 169.268 79.837 169.268C69.5984 169.268 61.2983 177.568 61.2983 187.807C61.2983 198.046 69.5984 206.346 79.837 206.346ZM158.844 187.807C158.844 198.046 150.543 206.346 140.305 206.346C130.066 206.346 121.766 198.046 121.766 187.807C121.766 177.568 130.066 169.268 140.305 169.268C150.543 169.268 158.844 177.568 158.844 187.807ZM200.773 206.346C211.011 206.346 219.311 198.046 219.311 187.807C219.311 177.568 211.011 169.268 200.773 169.268C190.534 169.268 182.234 177.568 182.234 187.807C182.234 198.046 190.534 206.346 200.773 206.346Z" fill="black"/>
</svg>
